<?xml version="1.0" encoding="utf-8"?>
<!-- Generator: Adobe Illustrator 15.0.0, SVG Export Plug-In . SVG Version: 6.00 Build 0)  -->
<!DOCTYPE svg PUBLIC "-//W3C//DTD SVG 1.1//EN" "http://www.w3.org/Graphics/SVG/1.1/DTD/svg11.dtd">
<svg version="1.1" id="Layer_1" xmlns="http://www.w3.org/2000/svg" xmlns:xlink="http://www.w3.org/1999/xlink" x="0px" y="0px"
	 width="489.5px" height="107.809px" viewBox="0 0 489.5 107.809" enable-background="new 0 0 489.5 107.809" xml:space="preserve">
<g>
	<path fill="#B7CD95" d="M20.608,34.97c-1.278-0.877-2.521-1.317-3.725-1.317c-1.205,0-2.3,0.356-3.284,1.068
		c-0.985,0.713-1.749,1.698-2.292,2.956c-0.544,1.259-0.815,2.683-0.815,4.273s0.271,3.023,0.815,4.298
		c0.543,1.275,1.307,2.277,2.292,3.006c0.984,0.729,2.079,1.093,3.284,1.093c1.117,0,2.314-0.373,3.593-1.118
		s2.417-1.73,3.416-2.956l5.907,7.104c-1.734,2.154-3.813,3.868-6.237,5.143c-2.424,1.274-4.827,1.913-7.207,1.913
		c-3.115,0-5.915-0.787-8.397-2.36c-2.483-1.573-4.43-3.759-5.841-6.559C0.706,48.716,0,45.578,0,42.1
		c0-3.444,0.72-6.533,2.16-9.266C3.6,30.101,5.591,27.957,8.133,26.4c2.542-1.557,5.415-2.335,8.618-2.335
		c2.351,0,4.717,0.588,7.097,1.764c2.38,1.176,4.364,2.741,5.951,4.695l-5.907,7.9C22.98,37,21.886,35.848,20.608,34.97z"/>
</g>
<g>
	<g>
		<path fill="#B7CD95" d="M38.873,24.81h27.089v8.745H49.471v4.273h14.983v8.744H49.471v4.323h16.902v8.744h-27.5V24.81z"/>
	</g>
</g>
<g>
	<path fill="#B7CD95" d="M117.809,24.81h27.815v9.092h-8.816v25.736h-10.227V33.902h-8.772V24.81z"/>
</g>
<g>
	<path fill="#B7CD95" d="M174.057,59.639l-3.703-9.042h-3.835v9.042h-10.227V24.811h14.943c4.202,0,7.45,1.085,9.742,3.254
		c2.292,2.17,3.438,5.242,3.438,9.216c0,2.518-0.419,4.712-1.256,6.583c-0.838,1.872-2.05,3.354-3.637,4.446l6.083,11.328H174.057z
		 M166.52,41.853h4.717c1.116,0,1.976-0.373,2.579-1.118c0.602-0.745,0.904-1.78,0.904-3.105c0-1.292-0.302-2.293-0.904-3.006
		c-0.603-0.712-1.462-1.068-2.579-1.068h-4.717V41.853z"/>
</g>
<g>
	<path fill="#B7CD95" d="M97.139,24.81h9.593v34.829H97.87L85.262,41.852v17.787h-9.639V24.81h8.862l12.654,17.886V24.81z"/>
</g>
<g>
	<path fill="#B7CD95" d="M290.808,59.638l-3.703-9.042h-3.835v9.042h-10.227V24.809h14.943c4.202,0,7.45,1.085,9.741,3.254
		c2.293,2.17,3.439,5.242,3.439,9.216c0,2.518-0.42,4.712-1.257,6.583c-0.838,1.872-2.05,3.354-3.637,4.446l6.083,11.328H290.808z
		 M283.27,41.851h4.717c1.116,0,1.976-0.373,2.579-1.118c0.602-0.745,0.903-1.78,0.903-3.105c0-1.292-0.302-2.293-0.903-3.006
		c-0.604-0.712-1.463-1.068-2.579-1.068h-4.717V41.851z"/>
</g>
<g>
	<path fill="#B7CD95" d="M313.793,24.81h10.227v34.829h-10.227V24.81z"/>
</g>
<g>
	<path fill="#B7CD95" d="M337.543,24.809h26.14v8.745H347.77v4.273h14.458v8.744H347.77v4.323h16.31v8.744h-26.536V24.809z"/>
</g>
<g>
	<path fill="#B7CD95" d="M398.89,24.809h10.198v34.828h-9.421L386.264,41.85v17.787h-10.247V24.809h9.422l13.451,17.886V24.809z"/>
</g>
<g>
	<path fill="#B7CD95" d="M420.56,24.808h27.814V33.9h-8.816v25.736h-10.227V33.9h-8.771V24.808z"/>
</g>
<g>
	<path fill="#B7CD95" d="M478.612,59.639l-1.543-4.918h-11.594l-1.586,4.918h-10.492l13.049-34.829h10.49L489.5,59.639H478.612z
		 M468.121,46.473h6.436l-3.174-10.186L468.121,46.473z"/>
</g>
<path fill="#B7CD95" d="M270.054,42.054l-16.252-3.064c-1.285-10.909-9.322-19.722-19.817-22.202l-1.446,8.313l-1.558-8.86
	L228.127,0l-3.121,16.24c-10.952,1.251-19.81,9.307-22.295,19.833l8.376,1.442l-24.769,4.544l15.847,2.995
	c1.253,10.948,9.306,19.802,19.829,22.288l1.553-8.347l4.57,24.669l2.931-15.785c10.949-1.285,19.793-9.368,22.242-19.916
	l-8.322-1.41L270.054,42.054z M227.989,59.564c-9.665,0-17.5-7.834-17.5-17.5s7.835-17.5,17.5-17.5s17.5,7.835,17.5,17.5
	S237.654,59.564,227.989,59.564z"/>
<path fill="#B7CD95" d="M232.708,41.663c-1.657,0-3-1.343-3-3c0-0.788,0.31-1.499,0.808-2.034c-0.77-0.358-1.623-0.563-2.526-0.563
	c-3.313,0-6,2.687-6,6s2.687,6,6,6s6-2.687,6-6c0-0.229-0.016-0.455-0.041-0.678C233.569,41.56,233.151,41.663,232.708,41.663z"/>
<g>
	<path fill="#B7CD95" d="M137.318,97.021c0,1.725-0.783,2.998-2.349,3.82s-3.487,1.233-5.763,1.233c-0.415,0-0.71-0.008-0.887-0.022
		c0,1.356,0.048,3.146,0.146,5.367h-3.718c0.114-2.085,0.172-4.541,0.172-7.368c0-2.597-0.058-4.837-0.172-6.72h2.302
		c0.327,0,0.953-0.011,1.879-0.032s1.729-0.032,2.409-0.032c1.676,0,3.092,0.31,4.248,0.931
		C136.74,94.817,137.318,95.759,137.318,97.021z M133.904,97.616c0-1.544-1.252-2.315-3.758-2.315c-0.626,0-1.288,0.054-1.985,0.162
		c0.097,1.363,0.146,2.907,0.146,4.631c0.221,0.015,0.477,0.021,0.768,0.021C132.294,100.115,133.904,99.282,133.904,97.616z"/>
	<path fill="#B7CD95" d="M151.055,103.578c0,2.82-2.479,4.23-7.438,4.23c-1.685,0-3.251-0.166-4.698-0.498l0.648-2.413
		c1.429,0.404,2.779,0.606,4.049,0.606c1.412,0,2.426-0.112,3.044-0.336c0.617-0.223,0.926-0.599,0.926-1.125
		c0-0.548-0.292-1.01-0.874-1.385c-0.503-0.332-1.522-0.765-3.057-1.299c-1.394-0.49-2.43-1.023-3.11-1.601
		c-0.855-0.729-1.283-1.627-1.283-2.694c0-1.241,0.562-2.211,1.687-2.911c1.125-0.699,2.741-1.049,4.85-1.049
		c1.729,0,3.18,0.118,4.354,0.356l-0.49,2.402c-1.191-0.354-2.479-0.53-3.864-0.53c-2.082,0-3.123,0.454-3.123,1.363
		c0,0.483,0.243,0.877,0.728,1.18c0.424,0.26,1.346,0.624,2.766,1.093c1.508,0.497,2.638,1.046,3.388,1.645
		C150.556,101.414,151.055,102.402,151.055,103.578z"/>
	<path fill="#B7CD95" d="M157.725,107.419h-3.745c0.114-2.236,0.172-4.692,0.172-7.368c0-2.633-0.058-4.873-0.172-6.72h3.745
		c-0.115,1.818-0.172,4.058-0.172,6.72C157.552,102.771,157.61,105.227,157.725,107.419z"/>
	<path fill="#B7CD95" d="M173.869,104.854l-0.225,2.488c-1.253,0.245-2.488,0.368-3.705,0.368c-3.026,0-5.331-0.684-6.915-2.05
		c-1.584-1.367-2.375-3.028-2.375-4.983c0-2.026,0.84-3.79,2.521-5.291c1.681-1.5,3.985-2.25,6.915-2.25
		c1.076,0,2.095,0.101,3.057,0.303l-0.463,2.499c-1.041-0.273-2.038-0.411-2.991-0.411c-1.791,0-3.123,0.464-3.997,1.391
		s-1.31,2.055-1.31,3.382c0,1.355,0.518,2.531,1.555,3.527c1.037,0.995,2.49,1.493,4.36,1.493
		C171.39,105.32,172.581,105.165,173.869,104.854z"/>
	<path fill="#B7CD95" d="M192.462,100.115c0,2.215-0.83,4.051-2.488,5.508c-1.659,1.457-3.71,2.186-6.154,2.186
		c-2.329,0-4.279-0.669-5.849-2.007s-2.355-3.039-2.355-5.102c0-2.215,0.829-4.051,2.488-5.508s3.71-2.186,6.154-2.186
		c2.329,0,4.278,0.667,5.849,2.002C191.677,96.343,192.462,98.045,192.462,100.115z M188.81,100.43c0-1.508-0.472-2.73-1.416-3.668
		c-0.944-0.938-2.109-1.407-3.494-1.407c-1.288,0-2.382,0.473-3.282,1.418c-0.899,0.944-1.35,2.139-1.35,3.581
		c0,1.5,0.474,2.722,1.423,3.662c0.948,0.941,2.11,1.412,3.487,1.412c1.288,0,2.382-0.474,3.282-1.423
		C188.359,103.057,188.81,101.864,188.81,100.43z"/>
	<path fill="#B7CD95" d="M207.958,97.021c0,1.725-0.783,2.998-2.349,3.82s-3.487,1.233-5.763,1.233c-0.415,0-0.71-0.008-0.887-0.022
		c0,1.356,0.048,3.146,0.146,5.367h-3.718c0.114-2.085,0.172-4.541,0.172-7.368c0-2.597-0.058-4.837-0.172-6.72h2.302
		c0.327,0,0.953-0.011,1.879-0.032s1.729-0.032,2.409-0.032c1.676,0,3.092,0.31,4.248,0.931
		C207.38,94.817,207.958,95.759,207.958,97.021z M204.544,97.616c0-1.544-1.252-2.315-3.758-2.315c-0.626,0-1.288,0.054-1.985,0.162
		c0.097,1.363,0.146,2.907,0.146,4.631c0.221,0.015,0.477,0.021,0.768,0.021C202.934,100.115,204.544,99.282,204.544,97.616z"/>
	<path fill="#B7CD95" d="M221.813,105.038l-0.105,2.381h-11.262c0.114-2.179,0.172-4.635,0.172-7.368
		c0-2.626-0.058-4.865-0.172-6.72h10.746l-0.146,2.37c-2.646-0.115-5.046-0.174-7.199-0.174c0.088,1.003,0.132,2.187,0.132,3.55
		c1.844,0,3.815-0.04,5.916-0.119v2.261c-2.064-0.071-4.037-0.107-5.916-0.107c0,1.464,0.035,2.834,0.106,4.111
		C216.502,105.223,219.079,105.161,221.813,105.038z"/>
	<path fill="#B7CD95" d="M239.295,99.889c0,2.048-0.803,3.837-2.409,5.366c-1.605,1.529-3.855,2.294-6.749,2.294
		c-1.306,0-3.105-0.043-5.399-0.13c0.114-2.179,0.172-4.635,0.172-7.368c0-2.626-0.058-4.865-0.172-6.72h2.316
		c0.379,0,0.944-0.011,1.694-0.032c0.75-0.021,1.239-0.032,1.469-0.032c3.185,0,5.494,0.649,6.928,1.947
		C238.578,96.513,239.295,98.07,239.295,99.889z M235.682,100.354c0-1.385-0.494-2.552-1.482-3.5
		c-0.988-0.948-2.497-1.423-4.526-1.423c-0.379,0-0.9,0.032-1.562,0.097c0.088,1.443,0.132,2.951,0.132,4.523
		c0,1.724,0.044,3.434,0.132,5.129c0.573,0.094,1.146,0.141,1.72,0.141c1.897,0,3.302-0.482,4.215-1.445
		S235.682,101.738,235.682,100.354z"/>
	<path fill="#B7CD95" d="M257.239,107.419h-4.234c0-0.477-0.401-1.825-1.204-4.047h-6.114c-0.829,2.186-1.244,3.535-1.244,4.047
		h-3.983c0-0.281,1.03-2.59,3.09-6.925s3.09-6.723,3.09-7.163h5.002c0,0.411,0.934,2.765,2.799,7.061
		C256.307,104.687,257.239,107.029,257.239,107.419z M251.126,101.306c-1.509-3.722-2.264-5.734-2.264-6.037h-0.211
		c0,0.281-0.781,2.293-2.343,6.037H251.126z"/>
	<path fill="#B7CD95" d="M272.922,107.051c-2.1,0.44-3.855,0.66-5.267,0.66c-3.035,0-5.336-0.68-6.901-2.039
		c-1.566-1.36-2.35-3.01-2.35-4.95c0-2.042,0.854-3.816,2.562-5.324c1.707-1.507,4.073-2.261,7.1-2.261
		c1.42,0,2.673,0.104,3.758,0.313l-0.437,2.554c-1.385-0.296-2.629-0.443-3.731-0.443c-1.862,0-3.251,0.467-4.169,1.4
		c-0.918,0.935-1.376,2.076-1.376,3.425c0,1.378,0.514,2.579,1.541,3.604c1.028,1.024,2.446,1.536,4.255,1.536
		c0.503,0,1.085-0.043,1.747-0.13c-0.133-0.801-0.198-1.587-0.198-2.358c0-0.779-0.093-1.655-0.278-2.63h3.745
		c-0.07,1.111-0.105,2.229-0.105,3.354C272.816,104.577,272.852,105.674,272.922,107.051z"/>
	<path fill="#B7CD95" d="M292.097,100.115c0,2.215-0.829,4.051-2.488,5.508c-1.658,1.457-3.71,2.186-6.153,2.186
		c-2.329,0-4.279-0.669-5.849-2.007c-1.571-1.338-2.356-3.039-2.356-5.102c0-2.215,0.829-4.051,2.488-5.508
		c1.658-1.457,3.71-2.186,6.153-2.186c2.329,0,4.279,0.667,5.85,2.002C291.312,96.343,292.097,98.045,292.097,100.115z
		 M288.444,100.43c0-1.508-0.473-2.73-1.416-3.668c-0.944-0.938-2.108-1.407-3.494-1.407c-1.288,0-2.382,0.473-3.281,1.418
		c-0.9,0.944-1.35,2.139-1.35,3.581c0,1.5,0.474,2.722,1.422,3.662c0.948,0.941,2.111,1.412,3.487,1.412
		c1.288,0,2.382-0.474,3.282-1.423C287.994,103.057,288.444,101.864,288.444,100.43z"/>
	<path fill="#B7CD95" d="M308.916,107.051c-2.1,0.44-3.855,0.66-5.267,0.66c-3.035,0-5.336-0.68-6.901-2.039
		c-1.566-1.36-2.35-3.01-2.35-4.95c0-2.042,0.854-3.816,2.562-5.324c1.707-1.507,4.073-2.261,7.1-2.261
		c1.42,0,2.673,0.104,3.758,0.313l-0.437,2.554c-1.385-0.296-2.629-0.443-3.731-0.443c-1.862,0-3.251,0.467-4.169,1.4
		c-0.918,0.935-1.376,2.076-1.376,3.425c0,1.378,0.514,2.579,1.541,3.604c1.028,1.024,2.446,1.536,4.255,1.536
		c0.503,0,1.085-0.043,1.747-0.13c-0.133-0.801-0.198-1.587-0.198-2.358c0-0.779-0.093-1.655-0.278-2.63h3.745
		c-0.07,1.111-0.105,2.229-0.105,3.354C308.811,104.577,308.846,105.674,308.916,107.051z"/>
	<path fill="#B7CD95" d="M315.877,107.419h-3.745c0.115-2.236,0.173-4.692,0.173-7.368c0-2.633-0.058-4.873-0.173-6.72h3.745
		c-0.114,1.818-0.172,4.058-0.172,6.72C315.705,102.771,315.763,105.227,315.877,107.419z M318.563,89.133
		c0,0.087-0.587,0.574-1.76,1.461c-1.174,0.888-1.805,1.389-1.893,1.504h-2.315c0-0.115,0.353-0.618,1.059-1.509
		c0.705-0.892,1.059-1.376,1.059-1.456H318.563z"/>
	<path fill="#B7CD95" d="M334.708,107.419h-4.235c0-0.477-0.401-1.825-1.204-4.047h-6.113c-0.83,2.186-1.244,3.535-1.244,4.047
		h-3.983c0-0.281,1.03-2.59,3.09-6.925c2.061-4.335,3.09-6.723,3.09-7.163h5.003c0,0.411,0.933,2.765,2.799,7.061
		C333.774,104.687,334.708,107.029,334.708,107.419z M328.594,101.306c-1.509-3.722-2.263-5.734-2.263-6.037h-0.212
		c0,0.281-0.78,2.293-2.342,6.037H328.594z"/>
</g>
</svg>
